<svg width="28" height="28" viewBox="0 0 28 28" fill="none" xmlns="http://www.w3.org/2000/svg">
<path d="M14 0.666748C21.3637 0.666748 27.3333 6.63628 27.3333 14.0001C27.3333 21.3638 21.3637 27.3334 14 27.3334C6.6362 27.3334 0.666666 21.3638 0.666666 14.0001C0.666666 6.63628 6.6362 0.666748 14 0.666748ZM18.2929 9.95964L12.3333 15.9191L9.7071 13.293C9.31659 12.9025 8.68341 12.9025 8.29289 13.293C7.90237 13.6835 7.90237 14.3166 8.29289 14.7071L11.6263 18.0405C12.0168 18.431 12.6499 18.431 13.0404 18.0405L19.7071 11.3738C20.0976 10.9833 20.0976 10.3502 19.7071 9.95964C19.3165 9.56912 18.6835 9.56912 18.2929 9.95964Z" fill="#24DC26"/>
</svg>
