<svg width="20" height="15" viewBox="0 0 20 15" fill="none" xmlns="http://www.w3.org/2000/svg">
<path d="M8.5 3C6.84315 3 5.5 4.34315 5.5 6C5.5 7.6569 6.84315 9 8.5 9C10.1569 9 11.5 7.6569 11.5 6C11.5 4.34315 10.1569 3 8.5 3ZM7 6C7 5.1716 7.67157 4.5 8.5 4.5C9.3284 4.5 10 5.1716 10 6C10 6.8284 9.3284 7.5 8.5 7.5C7.67157 7.5 7 6.8284 7 6ZM0 2.25C0 1.00736 1.00736 0 2.25 0H14.75C15.9926 0 17 1.00736 17 2.25V9.75C17 10.9926 15.9926 12 14.75 12H2.25C1.00736 12 0 10.9926 0 9.75V2.25ZM2.25 1.5C1.83579 1.5 1.5 1.83579 1.5 2.25V3H2.25C2.66421 3 3 2.66421 3 2.25V1.5H2.25ZM1.5 7.5H2.25C3.49264 7.5 4.5 8.5074 4.5 9.75V10.5H12.5V9.75C12.5 8.5074 13.5074 7.5 14.75 7.5H15.5V4.5H14.75C13.5074 4.5 12.5 3.49264 12.5 2.25V1.5H4.5V2.25C4.5 3.49264 3.49264 4.5 2.25 4.5H1.5V7.5ZM15.5 3V2.25C15.5 1.83579 15.1642 1.5 14.75 1.5H14V2.25C14 2.66421 14.3358 3 14.75 3H15.5ZM15.5 9H14.75C14.3358 9 14 9.3358 14 9.75V10.5H14.75C15.1642 10.5 15.5 10.1642 15.5 9.75V9ZM1.5 9.75C1.5 10.1642 1.83579 10.5 2.25 10.5H3V9.75C3 9.3358 2.66421 9 2.25 9H1.5V9.75ZM2.40137 13.5C2.92008 14.3967 3.8896 15 5.00002 15H15.25C17.8734 15 20 12.8734 20 10.25V5C20 3.8896 19.3967 2.92008 18.5 2.40137V10.25C18.5 12.0449 17.0449 13.5 15.25 13.5H2.40137Z" fill="#121212"/>
</svg>
