<svg width="20" height="16" viewBox="0 0 20 16" fill="none" xmlns="http://www.w3.org/2000/svg">
<path d="M2.25 0C1.00736 0 0 1.00736 0 2.25V13.25C0 14.7688 1.23122 16 2.75 16H7.25C8.7688 16 10 14.7688 10 13.25V5.5H18.5V15.25C18.5 15.6642 18.8358 16 19.25 16C19.6642 16 20 15.6642 20 15.25V2.25C20 1.00736 18.9926 0 17.75 0H2.25ZM1.5 5.5H8.5V13.25C8.5 13.9404 7.94036 14.5 7.25 14.5H2.75C2.05964 14.5 1.5 13.9404 1.5 13.25V5.5ZM1.5 4V2.25C1.5 1.83579 1.83579 1.5 2.25 1.5H17.75C18.1642 1.5 18.5 1.83579 18.5 2.25V4H1.5ZM3.75 7.5C3.33579 7.5 3 7.8358 3 8.25C3 8.6642 3.33579 9 3.75 9H6.25C6.66421 9 7 8.6642 7 8.25C7 7.8358 6.66421 7.5 6.25 7.5H3.75Z" fill="#121212"/>
</svg>
