<svg width="20" height="18" viewBox="0 0 20 18" fill="none" xmlns="http://www.w3.org/2000/svg">
<path d="M4.54322 3.48256C5.84003 2.39564 7.46603 1.6886 9.25 1.53263V3.25C9.25 3.66421 9.5858 4 10 4C10.4142 4 10.75 3.66421 10.75 3.25V1.53263C14.929 1.89798 18.2412 5.28742 18.4855 9.5H16.75C16.3358 9.5 16 9.8358 16 10.25C16 10.6642 16.3358 11 16.75 11H18.4444C18.1837 13.3116 17.0211 15.2483 15.2765 16.6683C14.9553 16.9298 14.9068 17.4022 15.1683 17.7235C15.4298 18.0447 15.9022 18.0932 16.2235 17.8317C18.45 16.0194 19.8936 13.4382 19.9944 10.3473C19.9985 10.3154 20.0006 10.283 20.0006 10.25C20.0006 10.2301 19.9998 10.2103 19.9983 10.1907C19.9994 10.1274 20 10.0638 20 10C20 4.47715 15.5228 0 10 0C4.47715 0 0 4.47715 0 10C0 13.2522 1.52303 15.9538 3.76986 17.8262C4.08807 18.0913 4.56099 18.0483 4.82617 17.7301C5.09134 17.4119 5.04835 16.939 4.73014 16.6738C3.01891 15.2478 1.82673 13.3069 1.55764 11H3.24963C3.66385 11 3.99963 10.6642 3.99963 10.25C3.99963 9.8358 3.66385 9.5 3.24963 9.5H1.51446C1.62363 7.61804 2.34508 5.90037 3.48256 4.54322L4.71967 5.78033C5.01256 6.07322 5.48744 6.07322 5.78033 5.78033C6.07322 5.48744 6.07322 5.01256 5.78033 4.71967L4.54322 3.48256ZM14.7589 4.63409C14.5207 4.44971 14.1824 4.45611 13.9516 4.64937L13.7344 4.83167C13.596 4.9479 13.3979 5.1145 13.1588 5.31609C12.6808 5.71919 12.0386 6.26249 11.3826 6.82286C10.727 7.38283 10.0555 7.96154 9.5197 8.4349C9.2521 8.6713 9.0157 8.8838 8.831 9.0556C8.6593 9.2154 8.4986 9.3707 8.4112 9.4787C7.75823 10.2863 7.89798 11.4588 8.7234 12.0977C9.5488 12.7365 10.7472 12.5998 11.4002 11.7923C11.4876 11.6842 11.6051 11.4955 11.7245 11.2953C11.8529 11.0799 12.0099 10.8059 12.1835 10.4967C12.5311 9.8777 12.9523 9.1053 13.3585 8.3522C13.7649 7.59869 14.1576 6.86226 14.4486 6.31438C14.5941 6.04039 14.7142 5.81345 14.798 5.65496L14.9294 5.40617C15.0685 5.14203 14.9971 4.81847 14.7589 4.63409Z" fill="#121212"/>
</svg>
